<svg width="100" height="100" viewBox="0 0 100 100" fill="none" xmlns="http://www.w3.org/2000/svg">
<g id="figma">
<g id="figma_2">
<path id="Vector" d="M33.3334 99.9998C42.5334 99.9998 50.0001 92.5331 50.0001 83.3331V66.6665H33.3334C24.1334 66.6665 16.6667 74.1332 16.6667 83.3331C16.6667 92.5331 24.1334 99.9998 33.3334 99.9998Z" fill="#0ACF83"/>
<path id="Vector_2" d="M16.6667 49.9996C16.6667 40.7997 24.1334 33.333 33.3334 33.333H50.0001V66.6663H33.3334C24.1334 66.6663 16.6667 59.1996 16.6667 49.9996Z" fill="#A259FF"/>
<path id="Vector_3" d="M16.6667 16.6664C16.6667 7.46642 24.1334 -0.000244141 33.3334 -0.000244141H50.0001V33.3331H33.3334C24.1334 33.3331 16.6667 25.8664 16.6667 16.6664Z" fill="#F24E1E"/>
<path id="Vector_4" d="M50 -0.000244141H66.6667C75.8667 -0.000244141 83.3334 7.46642 83.3334 16.6664C83.3334 25.8664 75.8667 33.3331 66.6667 33.3331H50V-0.000244141Z" fill="#FF7262"/>
<path id="Vector_5" d="M83.3334 49.9996C83.3334 59.1996 75.8667 66.6663 66.6667 66.6663C57.4667 66.6663 50 59.1996 50 49.9996C50 40.7997 57.4667 33.333 66.6667 33.333C75.8667 33.333 83.3334 40.7997 83.3334 49.9996Z" fill="#1ABCFE"/>
</g>
</g>
</svg>
