<svg width="100" height="100" viewBox="0 0 100 100" fill="none" xmlns="http://www.w3.org/2000/svg">
<g id="vitejs">
<g id="vitejs_2">
<path id="Vector" d="M98.848 14.8006L52.7313 98.6943C51.7791 100.426 49.3328 100.437 48.3664 98.713L1.33543 14.8084C0.28237 12.9303 1.86119 10.655 3.9535 11.0358L50.1197 19.4303C50.4142 19.4839 50.7158 19.4833 51.0102 19.4288L96.2107 11.0475C98.2961 10.6609 99.8822 12.9186 98.848 14.8006V14.8006Z" fill="url(#paint0_linear_2028_1929)"/>
<path id="Vector_2" d="M72.111 0.0243766L37.9836 6.82755C37.7109 6.8819 37.4637 7.0269 37.2809 7.23975C37.098 7.4526 36.9899 7.72124 36.9735 8.00342L34.8743 44.0738C34.8627 44.2716 34.8967 44.4694 34.9734 44.6516C35.0502 44.8337 35.1676 44.9952 35.3164 45.1231C35.4651 45.251 35.6412 45.3419 35.8305 45.3885C36.0199 45.4351 36.2173 45.4362 36.4071 45.3916L45.9088 43.1608C46.7977 42.9521 47.6011 43.7488 47.4182 44.6582L44.5953 58.7214C44.4055 59.6679 45.2787 60.477 46.1872 60.1961L52.0561 58.3824C52.9657 58.1015 53.8401 58.9129 53.6476 59.8602L49.1615 81.95C48.8808 83.3319 50.6874 84.0853 51.4406 82.9008L51.9441 82.1096L79.7532 25.6492C80.2191 24.7039 79.4157 23.626 78.3956 23.8265L68.6147 25.7468C67.6959 25.927 66.914 25.0562 67.1732 24.1418L73.5568 1.629C73.8164 0.712185 73.0314 -0.158987 72.1114 0.0243766H72.111Z" fill="url(#paint1_linear_2028_1929)"/>
</g>
</g>
<defs>
<linearGradient id="paint0_linear_2028_1929" x1="0.187129" y1="17.8044" x2="51.0375" y2="85.6872" gradientUnits="userSpaceOnUse">
<stop stop-color="#41D1FF"/>
<stop offset="1" stop-color="#BD34FE"/>
</linearGradient>
<linearGradient id="paint1_linear_2028_1929" x1="54.3985" y1="1.87157" x2="64.9804" y2="73.2238" gradientUnits="userSpaceOnUse">
<stop stop-color="#FFEA83"/>
<stop offset="0.083" stop-color="#FFDD35"/>
<stop offset="1" stop-color="#FFA800"/>
</linearGradient>
</defs>
</svg>
