<svg width="100" height="100" viewBox="0 0 100 100" fill="none" xmlns="http://www.w3.org/2000/svg">
<g id="wordpress">
<g id="wordpress_2">
<path id="Vector" d="M7.10743 49.9977C7.10743 66.9766 16.9741 81.6481 31.2817 88.6019L10.821 32.5414C8.36825 38.0339 7.10279 43.9824 7.10743 49.9977V49.9977ZM78.9568 47.8332C78.9568 42.5322 77.0526 38.861 75.4195 36.0036C73.2452 32.4704 71.208 29.4783 71.208 25.9451C71.208 22.0022 74.1977 18.3318 78.4099 18.3318C78.6001 18.3318 78.7805 18.3555 78.9666 18.3661C71.3345 11.3748 61.1675 7.1062 50.0006 7.1062C35.0157 7.1062 21.832 14.7946 14.1624 26.4397C15.1688 26.4699 16.118 26.4903 16.9227 26.4903C21.4092 26.4903 28.3541 25.9459 28.3541 25.9459C30.6663 25.8096 30.9389 29.2057 28.6299 29.4791C28.6299 29.4791 26.3055 29.7526 23.7198 29.888L39.3397 76.3487L48.7274 48.1964L42.0437 29.8872C39.734 29.7517 37.5458 29.4783 37.5458 29.4783C35.2344 29.3428 35.5054 25.8088 37.8168 25.9451C37.8168 25.9451 44.9003 26.4895 49.115 26.4895C53.6007 26.4895 60.5464 25.9451 60.5464 25.9451C62.8602 25.8088 63.132 29.2049 60.8214 29.4783C60.8214 29.4783 58.4929 29.7517 55.9121 29.8872L71.4129 75.9961L75.6905 61.6992C77.5456 55.7664 78.9568 51.5052 78.9568 47.8332V47.8332Z" fill="white"/>
<path id="Vector_2" d="M50.753 53.7499L37.8835 91.1453C41.8181 92.3048 45.8986 92.8935 50.0005 92.8935C54.9955 92.8935 59.7856 92.0292 64.2443 90.4621C64.1247 90.2749 64.0226 90.0771 63.9391 89.8712L50.753 53.7499ZM87.6375 29.4189C87.822 30.7852 87.9265 32.2527 87.9265 33.8295C87.9265 38.1822 87.1135 43.0751 84.665 49.1932L71.563 87.0742C84.3149 79.638 92.8921 65.8227 92.8921 49.9979C92.9035 42.805 91.096 35.7259 87.6375 29.4189V29.4189Z" fill="white"/>
<path id="Vector_3" d="M50.0005 -0.000976562C22.4309 -0.000976562 0 22.4283 0 49.9978C0 77.5705 22.4301 99.9998 50.0005 99.9998C77.5692 99.9998 100.003 77.5714 100.003 49.9978C100.003 22.4283 77.5692 -0.000976562 50.0005 -0.000976562ZM50.0005 97.7072C23.6952 97.7072 2.29263 76.3047 2.29263 49.9978C2.29263 23.6933 23.6944 2.29247 50.0005 2.29247C76.305 2.29247 97.7059 23.6933 97.7059 49.9978C97.7059 76.3047 76.3041 97.7072 50.0005 97.7072Z" fill="white"/>
</g>
</g>
</svg>
