<svg width="168" height="40" viewBox="0 0 168 40" fill="none" xmlns="http://www.w3.org/2000/svg">
<path d="M21.1893 33.8497L0 24.8324V18.9133L21.1893 9.84971V16.0462L4.93955 22.9364V20.8092L21.1893 27.6994V33.8497Z" fill="white"/>
<path d="M30.1985 34.4509V0H41.4164C45.0479 0 48.2025 0.739885 50.88 2.21965C53.5883 3.66859 55.6811 5.68786 57.1583 8.27746C58.6356 10.8362 59.3742 13.8112 59.3742 17.2023C59.3742 20.5626 58.6356 23.553 57.1583 26.1734C55.6811 28.763 53.5883 30.7977 50.88 32.2775C48.2025 33.7264 45.0479 34.4509 41.4164 34.4509H30.1985ZM36.4768 28.9017H41.5549C43.8938 28.9017 45.9097 28.4239 47.6024 27.4682C49.3258 26.4817 50.6646 25.1252 51.6186 23.3988C52.5727 21.6416 53.0497 19.5761 53.0497 17.2023C53.0497 14.7977 52.5727 12.7322 51.6186 11.0058C50.6646 9.27938 49.3258 7.93834 47.6024 6.98266C45.9097 6.02698 43.8938 5.54914 41.5549 5.54914H36.4768V28.9017Z" fill="white"/>
<path d="M76.6965 35.0058C74.1113 35.0058 71.8493 34.42 69.9104 33.2486C67.9715 32.0771 66.4635 30.4894 65.3863 28.4855C64.3092 26.4817 63.7706 24.262 63.7706 21.8266C63.7706 19.2987 64.3092 17.0636 65.3863 15.1214C66.4943 13.1484 67.9869 11.5915 69.8642 10.4509C71.7724 9.31021 73.8959 8.73988 76.2349 8.73988C78.2046 8.73988 79.928 9.06358 81.4053 9.71098C82.9133 10.3584 84.1905 11.2524 85.2369 12.3931C86.2833 13.5337 87.0834 14.8439 87.6374 16.3237C88.1914 17.7726 88.4684 19.3449 88.4684 21.0405C88.4684 21.4721 88.4376 21.9191 88.376 22.3815C88.3453 22.8439 88.2683 23.2447 88.1452 23.5838H68.7563V18.9595H84.7291L81.8669 21.1329C82.1439 19.7148 82.0669 18.4509 81.6361 17.341C81.236 16.2312 80.5589 15.3526 79.6049 14.7052C78.6816 14.0578 77.5583 13.7341 76.2349 13.7341C74.9731 13.7341 73.8497 14.0578 72.8649 14.7052C71.8801 15.3218 71.1261 16.2466 70.6029 17.4798C70.1105 18.6821 69.9258 20.1464 70.0489 21.8728C69.9258 23.4143 70.1258 24.7861 70.649 25.9884C71.203 27.1599 72.0032 28.0694 73.0496 28.7168C74.1267 29.3642 75.3578 29.6879 76.7427 29.6879C78.1276 29.6879 79.2971 29.395 80.2512 28.8093C81.236 28.2235 82.0054 27.4374 82.5594 26.4509L87.4528 28.8555C86.9603 30.0578 86.1909 31.1214 85.1446 32.0462C84.0982 32.9711 82.8517 33.6956 81.4053 34.2197C79.9896 34.7437 78.42 35.0058 76.6965 35.0058Z" fill="white"/>
<path d="M101.096 34.4509L91.2169 9.2948H97.8184L104.974 29.0867H102.527L109.729 9.2948H116.33L106.451 34.4509H101.096Z" fill="white"/>
<path d="M118.519 40L133.845 1.84971H140.447L125.12 40H118.519Z" fill="white"/>
<path d="M146.857 33.8497V27.6994L163.06 20.8092V22.9364L146.857 16.0462V9.84971L168 18.9133V24.8324L146.857 33.8497Z" fill="white"/>
</svg>
